<svg width="34" height="34" viewBox="0 0 34 34" fill="none" xmlns="http://www.w3.org/2000/svg">
<path d="M33.0083 16.6291C33.0083 25.6751 25.6751 33.0083 16.6291 33.0083C7.58319 33.0083 0.25 25.6751 0.25 16.6291C0.25 7.58319 7.58319 0.25 16.6291 0.25C25.6751 0.25 33.0083 7.58319 33.0083 16.6291Z" stroke="white" stroke-width="0.5"/>
<path d="M20.3421 19.0333H20.7707L20.8362 18.6098L21.3625 15.2098L21.4518 14.6333H20.8684H18.1447V12.9333C18.1447 12.5397 18.2428 12.2033 18.4377 11.9729C18.6197 11.7577 18.9438 11.5667 19.5526 11.5667H21H21.5V11.0667V8.2V7.77026L21.0751 7.70568L21 8.2L21.0751 7.70566L21.0749 7.70565L21.0746 7.7056L21.0736 7.70545L21.0702 7.70493L21.0577 7.70308L21.0111 7.69636C20.9708 7.69065 20.9124 7.68258 20.8384 7.67294C20.6906 7.65368 20.4802 7.6281 20.228 7.60255C19.7254 7.55161 19.0493 7.5 18.3684 7.5C16.9514 7.5 15.7106 7.93263 14.8236 8.8219C13.936 9.71179 13.4605 11.0008 13.4605 12.6V14.7H11H10.5V15.2V18.6V19.1H11H13.4605V26.8667V27.3135L13.9046 27.3635L13.9146 27.3647C14.5011 27.4307 15.1166 27.5 15.8026 27.5C16.4886 27.5 17.1042 27.4307 17.6907 27.3647L17.7007 27.3635L18.1447 27.3135V26.8667V19.0333H20.3421Z" stroke="white"/>
</svg>
