<svg width="34" height="34" viewBox="0 0 34 34" fill="none" xmlns="http://www.w3.org/2000/svg">
<path d="M33.1937 16.6291C33.1937 25.6751 25.8605 33.0083 16.8146 33.0083C7.76862 33.0083 0.435432 25.6751 0.435432 16.6291C0.435432 7.58319 7.76862 0.25 16.8146 0.25C25.8605 0.25 33.1937 7.58319 33.1937 16.6291Z" stroke="white" stroke-width="0.5"/>
<path d="M20.4666 11.9667H21.5999M13.0999 8.56665H19.8999C22.4036 8.56665 24.4332 10.5963 24.4332 13.1V19.9C24.4332 22.4037 22.4036 24.4333 19.8999 24.4333H13.0999C10.5962 24.4333 8.56655 22.4037 8.56655 19.9V13.1C8.56655 10.5963 10.5962 8.56665 13.0999 8.56665ZM16.4999 19.9C14.6221 19.9 13.0999 18.3778 13.0999 16.5C13.0999 14.6222 14.6221 13.1 16.4999 13.1C18.3777 13.1 19.8999 14.6222 19.8999 16.5C19.8999 18.3778 18.3777 19.9 16.4999 19.9Z" stroke="white"/>
</svg>
