<svg width="34" height="34" viewBox="0 0 34 34" fill="none" xmlns="http://www.w3.org/2000/svg">
<path d="M33.5646 16.6291C33.5646 25.6751 26.2314 33.0083 17.1854 33.0083C8.13947 33.0083 0.806282 25.6751 0.806282 16.6291C0.806282 7.58319 8.13947 0.25 17.1854 0.25C26.2314 0.25 33.5646 7.58319 33.5646 16.6291Z" stroke="white" stroke-width="0.5"/>
<path fill-rule="evenodd" clip-rule="evenodd" d="M20.3779 13.9287C19.8811 14.2523 19.627 14.6257 19.5607 14.8548C19.4954 15.0807 19.2832 15.2221 19.0618 15.1872C18.8404 15.1523 18.6766 14.9518 18.6766 14.7156V13.475H15.9147C15.9276 14.4918 15.9265 16.7007 15.9217 18.8121C15.9187 20.1232 15.9142 21.4058 15.9105 22.3605C15.9087 22.8117 15.9071 23.1898 15.9059 23.463H18.6766V18.019C18.6766 17.9852 18.6764 17.9493 18.6762 17.9119C18.6754 17.7852 18.6746 17.6417 18.6815 17.51C18.6906 17.3384 18.7143 17.134 18.7911 16.941C19.0839 16.1796 19.756 15.3077 20.9809 15.3077C21.747 15.3077 22.3533 15.6196 22.752 16.1929C23.1349 16.7434 23.2891 17.481 23.2891 18.2769V23.463H26.0961V17.856C26.0961 16.2511 25.665 15.1413 25.0185 14.4348C24.3722 13.7288 23.4605 13.3705 22.3947 13.3705C21.5406 13.3705 20.8607 13.6142 20.3779 13.9287ZM15.4519 23.9399C15 23.9375 15 23.9375 15 23.9374L15.0019 23.5049C15.0031 23.229 15.0048 22.8337 15.0067 22.3565C15.0104 21.4021 15.0149 20.1202 15.0179 18.8098C15.0239 16.1757 15.0236 13.4624 15.0006 13.0245C14.9938 12.8936 15.0383 12.7656 15.1236 12.6704C15.209 12.5752 15.3277 12.5213 15.4519 12.5213H19.1285C19.3781 12.5213 19.5804 12.7348 19.5804 12.9981V13.3526C19.6816 13.27 19.7894 13.1912 19.9031 13.1172C20.5306 12.7085 21.3752 12.4167 22.3947 12.4167C23.6546 12.4167 24.8196 12.8447 25.6686 13.7723C26.5173 14.6996 27 16.071 27 17.856V23.9399C27 24.2033 26.7976 24.4167 26.5481 24.4167H22.8371C22.5876 24.4167 22.3852 24.2033 22.3852 23.9399V18.2769C22.3852 17.5909 22.2495 17.0823 22.0233 16.7571C21.813 16.4547 21.4912 16.2614 20.9809 16.2614C20.254 16.2614 19.8387 16.7514 19.6277 17.302L19.6247 17.3097C19.6072 17.3532 19.591 17.43 19.5839 17.5631C19.5787 17.6627 19.5792 17.764 19.5799 17.8831C19.5802 17.9258 19.5804 17.9709 19.5804 18.019V23.9399C19.5804 24.2033 19.3781 24.4167 19.1285 24.4167H15.4519C15.3316 24.4167 15.2163 24.3662 15.1315 24.2762C15.0467 24.1863 14.9994 24.0643 15 23.9374L15.4519 23.9399Z" fill="white"/>
<path fill-rule="evenodd" clip-rule="evenodd" d="M8.99989 12.8978C8.99989 12.6321 9.21793 12.4167 9.4869 12.4167H13.0129C13.2818 12.4167 13.4999 12.6321 13.4999 12.8978V23.9357C13.4999 24.2014 13.2818 24.4167 13.0129 24.4167H9.4869C9.21793 24.4167 8.99989 24.2014 8.99989 23.9357V12.8978ZM9.97391 13.3789V23.4546H12.5259V13.3789H9.97391Z" fill="white"/>
<path fill-rule="evenodd" clip-rule="evenodd" d="M10.2516 8.26839C10.032 8.48759 9.90214 8.79649 9.90214 9.16777C9.90214 9.86106 10.3739 10.4407 11.2187 10.4407H11.2412C11.6986 10.4407 12.0351 10.2821 12.2534 10.0603C12.4701 9.84009 12.5963 9.53229 12.5976 9.17161C12.5878 8.79014 12.4574 8.47948 12.2463 8.26327C12.0342 8.04605 11.7094 7.8928 11.2619 7.8928C10.8113 7.8928 10.4728 8.04754 10.2516 8.26839ZM9.63972 7.55107C10.0501 7.14145 10.617 6.91675 11.2619 6.91675C11.9065 6.91675 12.4639 7.14212 12.8666 7.55445C13.2691 7.96667 13.4858 8.53437 13.4998 9.15387L13.4999 9.16573C13.4999 9.78589 13.2788 10.3574 12.8712 10.7717C12.4639 11.1855 11.8967 11.4167 11.2412 11.4167H11.2187C9.9176 11.4167 8.99989 10.4445 8.99989 9.16777C8.99989 8.53493 9.22774 7.96233 9.63972 7.55107Z" fill="white"/>
</svg>
