<svg width="34" height="34" viewBox="0 0 34 34" fill="none" xmlns="http://www.w3.org/2000/svg">
<path d="M33.75 16.6291C33.75 25.6751 26.4168 33.0083 17.3708 33.0083C8.32489 33.0083 0.991699 25.6751 0.991699 16.6291C0.991699 7.58319 8.32489 0.25 17.3708 0.25C26.4168 0.25 33.75 7.58319 33.75 16.6291Z" stroke="white" stroke-width="0.5"/>
<path d="M18.9523 15.3557L25.1426 8.31445H23.6754L18.3019 14.428L14.008 8.31445H9.05627L15.5485 17.5603L9.05627 24.9436H10.5234L16.1989 18.4867L20.7337 24.9436H25.6854L18.9523 15.3557ZM16.9435 17.641L16.2857 16.7205L11.0516 9.39535H13.3049L17.5279 15.307L18.1857 16.2275L23.6766 23.9126H21.4233L16.9435 17.641Z" fill="white"/>
</svg>
