<svg width="34" height="34" viewBox="0 0 34 34" fill="none" xmlns="http://www.w3.org/2000/svg">
<path d="M33.3791 16.6292C33.3791 25.6751 26.046 33.0083 17 33.0083C7.95406 33.0083 0.620865 25.6751 0.620865 16.6292C0.620865 7.5832 7.95406 0.25 17 0.25C26.046 0.25 33.3791 7.5832 33.3791 16.6292Z" stroke="white" stroke-width="0.5"/>
<path d="M26.1323 13.9459C26.1323 11.7851 24.3472 10 22.1864 10H11.9458C9.78497 10 7.99992 11.7851 7.99992 13.9459V18.7373C7.99992 20.8982 9.78497 22.6832 11.9458 22.6832H22.1864C24.3472 22.6832 26.1323 20.8982 26.1323 18.7373V13.9459ZM20.1195 16.6705L15.5159 18.9252C15.328 19.0192 14.7643 18.9253 14.7643 18.6434V14.0398C14.7643 13.8519 15.422 13.6641 15.5159 13.852L19.9316 16.2007C20.1195 16.2947 20.3074 16.5765 20.1195 16.6705Z" stroke="white"/>
</svg>
