<svg width="51" height="51" viewBox="0 0 51 51" fill="none" xmlns="http://www.w3.org/2000/svg">
<path fill-rule="evenodd" clip-rule="evenodd" d="M16.9255 3.16626C17.7539 3.16626 18.4255 3.83783 18.4255 4.66626V10.9163C18.4255 11.7447 17.7539 12.4163 16.9255 12.4163C16.097 12.4163 15.4255 11.7447 15.4255 10.9163V4.66626C15.4255 3.83783 16.097 3.16626 16.9255 3.16626Z" fill="#4687af"/>
<path fill-rule="evenodd" clip-rule="evenodd" d="M33.5923 3.16626C34.4208 3.16626 35.0923 3.83783 35.0923 4.66626V10.9163C35.0923 11.7447 34.4208 12.4163 33.5923 12.4163C32.7639 12.4163 32.0923 11.7447 32.0923 10.9163V4.66626C32.0923 3.83783 32.7639 3.16626 33.5923 3.16626Z" fill="#4687af"/>
<path fill-rule="evenodd" clip-rule="evenodd" d="M6.05048 19.437C6.05048 18.6086 6.72205 17.937 7.55048 17.937H42.9671C43.7956 17.937 44.4671 18.6086 44.4671 19.437C44.4671 20.2654 43.7956 20.937 42.9671 20.937H7.55048C6.72205 20.937 6.05048 20.2654 6.05048 19.437Z" fill="#4687af"/>
<path fill-rule="evenodd" clip-rule="evenodd" d="M10.0821 11.6765C8.73289 13.1295 8.00891 15.3129 8.00891 18.2079V35.9163C8.00891 38.8113 8.73289 40.9947 10.0821 42.4477C11.4125 43.8805 13.5656 44.8329 16.9256 44.8329H33.5922C36.9522 44.8329 39.1053 43.8805 40.4358 42.4477C41.7849 40.9947 42.5089 38.8113 42.5089 35.9163V18.2079C42.5089 15.3129 41.7849 13.1295 40.4358 11.6765C39.1053 10.2437 36.9522 9.29126 33.5922 9.29126H16.9256C13.5656 9.29126 11.4125 10.2437 10.0821 11.6765ZM7.88368 9.63517C9.93862 7.42216 12.9938 6.29126 16.9256 6.29126H33.5922C37.524 6.29126 40.5792 7.42216 42.6341 9.63517C44.6704 11.8281 45.5089 14.853 45.5089 18.2079V35.9163C45.5089 39.2712 44.6704 42.2961 42.6341 44.489C40.5792 46.702 37.524 47.8329 33.5922 47.8329H16.9256C12.9938 47.8329 9.93862 46.702 7.88368 44.489C5.84743 42.2961 5.00891 39.2712 5.00891 35.9163V18.2079C5.00891 14.853 5.84743 11.8281 7.88368 9.63517Z" fill="#4687af"/>
<path fill-rule="evenodd" clip-rule="evenodd" d="M31.9563 29.0419C31.9563 27.9373 32.8517 27.0419 33.9563 27.0419H33.975C35.0796 27.0419 35.975 27.9373 35.975 29.0419C35.975 30.1464 35.0796 31.0419 33.975 31.0419H33.9563C32.8517 31.0419 31.9563 30.1464 31.9563 29.0419Z" fill="#4687af"/>
<path fill-rule="evenodd" clip-rule="evenodd" d="M31.9563 37.2919C31.9563 36.1873 32.8517 35.2919 33.9563 35.2919H33.975C35.0796 35.2919 35.975 36.1873 35.975 37.2919C35.975 38.3964 35.0796 39.2919 33.975 39.2919H33.9563C32.8517 39.2919 31.9563 38.3964 31.9563 37.2919Z" fill="#4687af"/>
<path fill-rule="evenodd" clip-rule="evenodd" d="M23.2494 29.042C23.2494 27.9374 24.1448 27.042 25.2494 27.042H25.2681C26.3727 27.042 27.2681 27.9374 27.2681 29.042C27.2681 30.1466 26.3727 31.042 25.2681 31.042H25.2494C24.1448 31.042 23.2494 30.1466 23.2494 29.042Z" fill="#4687af"/>
<path fill-rule="evenodd" clip-rule="evenodd" d="M23.2494 37.2919C23.2494 36.1873 24.1448 35.2919 25.2494 35.2919H25.2681C26.3727 35.2919 27.2681 36.1873 27.2681 37.2919C27.2681 38.3964 26.3727 39.2919 25.2681 39.2919H25.2494C24.1448 39.2919 23.2494 38.3964 23.2494 37.2919Z" fill="#4687af"/>
<path fill-rule="evenodd" clip-rule="evenodd" d="M14.5388 29.0419C14.5388 27.9373 15.4342 27.0419 16.5388 27.0419H16.5575C17.6621 27.0419 18.5575 27.9373 18.5575 29.0419C18.5575 30.1464 17.6621 31.0419 16.5575 31.0419H16.5388C15.4342 31.0419 14.5388 30.1464 14.5388 29.0419Z" fill="#4687af"/>
<path fill-rule="evenodd" clip-rule="evenodd" d="M14.5388 37.2919C14.5388 36.1873 15.4342 35.2919 16.5388 35.2919H16.5575C17.6621 35.2919 18.5575 36.1873 18.5575 37.2919C18.5575 38.3964 17.6621 39.2919 16.5575 39.2919H16.5388C15.4342 39.2919 14.5388 38.3964 14.5388 37.2919Z" fill="#4687af"/>
</svg>
