<svg width="51" height="51" viewBox="0 0 51 51" fill="none" xmlns="http://www.w3.org/2000/svg">
<path fill-rule="evenodd" clip-rule="evenodd" d="M11.9761 8.25C8.7775 8.25 6.18448 10.843 6.18448 14.0417C6.18448 17.2403 8.7775 19.8333 11.9761 19.8333C15.1748 19.8333 17.7678 17.2403 17.7678 14.0417C17.7678 10.843 15.1748 8.25 11.9761 8.25ZM3.18448 14.0417C3.18448 9.18616 7.12064 5.25 11.9761 5.25C16.8316 5.25 20.7678 9.18616 20.7678 14.0417C20.7678 18.8972 16.8316 22.8333 11.9761 22.8333C7.12064 22.8333 3.18448 18.8972 3.18448 14.0417Z" fill="#4687af"/>
<path fill-rule="evenodd" clip-rule="evenodd" d="M11.9761 31.1666C8.7775 31.1666 6.18448 33.7596 6.18448 36.9583C6.18448 40.1569 8.7775 42.75 11.9761 42.75C15.1748 42.75 17.7678 40.1569 17.7678 36.9583C17.7678 33.7596 15.1748 31.1666 11.9761 31.1666ZM3.18448 36.9583C3.18448 32.1028 7.12064 28.1666 11.9761 28.1666C16.8316 28.1666 20.7678 32.1028 20.7678 36.9583C20.7678 41.8138 16.8316 45.75 11.9761 45.75C7.12064 45.75 3.18448 41.8138 3.18448 36.9583Z" fill="#4687af"/>
<path fill-rule="evenodd" clip-rule="evenodd" d="M47.5524 12.1018C48.0484 12.7654 47.9126 13.7053 47.2491 14.2014L19.4366 34.993C18.7731 35.4891 17.8331 35.3533 17.337 34.6898C16.841 34.0263 16.9768 33.0863 17.6403 32.5902L45.4528 11.7986C46.1164 11.3025 47.0563 11.4383 47.5524 12.1018Z" fill="#4687af"/>
<path fill-rule="evenodd" clip-rule="evenodd" d="M17.3375 16.2263C17.8338 15.563 18.7739 15.4277 19.4372 15.924L47.2497 36.7365C47.9129 37.2328 48.0483 38.1729 47.5519 38.8362C47.0556 39.4994 46.1155 39.6348 45.4523 39.1384L17.6397 18.3259C16.9765 17.8296 16.8411 16.8895 17.3375 16.2263Z" fill="#4687af"/>
</svg>
