<svg width="50" height="51" viewBox="0 0 50 51" fill="none" xmlns="http://www.w3.org/2000/svg">
<path fill-rule="evenodd" clip-rule="evenodd" d="M2.66663 25.5C2.66663 13.2132 12.7132 3.16663 25 3.16663C37.2867 3.16663 47.3333 13.2132 47.3333 25.5C47.3333 37.7867 37.2867 47.8333 25 47.8333C12.7132 47.8333 2.66663 37.7867 2.66663 25.5ZM25 6.16663C14.3701 6.16663 5.66663 14.8701 5.66663 25.5C5.66663 36.1299 14.3701 44.8333 25 44.8333C35.6299 44.8333 44.3333 36.1299 44.3333 25.5C44.3333 14.8701 35.6299 6.16663 25 6.16663Z" fill="#4687af"/>
<path fill-rule="evenodd" clip-rule="evenodd" d="M35.6524 18.9532C36.2306 19.5465 36.2183 20.4962 35.625 21.0743L22.2838 34.0743C21.7009 34.6423 20.7715 34.6418 20.1892 34.0734L13.5303 27.5734C12.9375 26.9947 12.9261 26.045 13.5047 25.4522C14.0834 24.8594 15.0331 24.8479 15.6259 25.4266L21.2379 30.9047L33.5313 18.9257C34.1246 18.3475 35.0743 18.3598 35.6524 18.9532Z" fill="#4687af"/>
</svg>
