<svg width="50" height="50" viewBox="0 0 50 50" fill="none" xmlns="http://www.w3.org/2000/svg">
<path fill-rule="evenodd" clip-rule="evenodd" d="M25.0001 5.66663C14.3285 5.66663 5.66675 14.3284 5.66675 25C5.66675 35.6715 14.3285 44.3333 25.0001 44.3333C35.6717 44.3333 44.3334 35.6715 44.3334 25C44.3334 14.3284 35.6717 5.66663 25.0001 5.66663ZM2.66675 25C2.66675 12.6715 12.6717 2.66663 25.0001 2.66663C37.3285 2.66663 47.3334 12.6715 47.3334 25C47.3334 37.3284 37.3285 47.3333 25.0001 47.3333C12.6717 47.3333 2.66675 37.3284 2.66675 25Z" fill="#4687af"/>
<path fill-rule="evenodd" clip-rule="evenodd" d="M24.2292 14.1458C25.0577 14.1458 25.7292 14.8174 25.7292 15.6458V24.1875C25.7292 24.5208 25.8557 24.9951 26.1312 25.4783C26.4068 25.9615 26.7504 26.3114 27.0356 26.4804L27.0396 26.4827L27.0396 26.4827L33.4979 30.3369C34.2093 30.7614 34.4418 31.6823 34.0173 32.3937C33.5928 33.105 32.6719 33.3376 31.9606 32.913L25.5062 29.0612C25.5054 29.0608 25.5047 29.0603 25.5039 29.0599C24.6652 28.5621 23.9888 27.7773 23.5252 26.9644C23.0611 26.1507 22.7292 25.1666 22.7292 24.1875V15.6458C22.7292 14.8174 23.4008 14.1458 24.2292 14.1458Z" fill="#4687af"/>
</svg>
