<svg width="50" height="51" viewBox="0 0 50 51" fill="none" xmlns="http://www.w3.org/2000/svg">
<path d="M12.602 47.3362C12.3874 46.9906 12.1605 46.6505 11.9617 46.2961C11.337 45.1836 11.0786 43.9834 11.0786 42.7195C11.082 36.0875 11.0798 39.4544 11.0798 38.379C11.0798 38.2232 11.0753 38.0675 11.0932 37.9139C11.1663 37.305 11.637 36.8738 12.238 36.8552C12.8536 36.8376 13.3682 37.2786 13.4479 37.9095C13.4749 38.1201 13.4659 38.3351 13.4659 38.548C13.467 39.5082 13.4648 36.025 13.467 42.5396C13.4682 45.7026 15.4712 47.6631 18.6954 47.6653C22.906 47.6675 27.1155 47.6752 31.3249 47.6609C33.7167 47.6532 35.622 45.1422 36.1579 42.993C35.9343 42.9853 36.0121 44.035 35.802 44.0339C30.6399 44.0328 25.1888 44.0821 20.0267 44.081C18.8426 44.081 18.4494 43.7014 18.4494 42.5539C18.4505 25.6639 18.4505 24.3284 18.4505 7.43729C18.4505 6.29191 18.8448 5.91122 20.0312 5.91122C25.1742 5.91122 30.3183 5.91012 35.4602 5.9178C35.6748 5.9189 35.8894 5.99679 36.2253 6.06372C35.7265 4.30615 34.7525 3.22769 33.2381 2.67475C32.6213 2.44984 31.9237 2.34562 31.262 2.34233C27.0323 2.3127 22.8026 2.31819 18.573 2.33026C15.4993 2.33904 13.4682 4.34016 13.467 7.34294C13.4625 13.9168 13.4648 32.7129 13.4648 39.2868C13.4648 40.34 13.0604 40.9039 12.2931 40.9182C11.4954 40.9335 11.0798 40.3718 11.0786 39.2758C11.0786 33.2066 11.1123 14.913 11.0618 8.84489C11.0427 6.63421 11.1887 4.51021 12.5997 2.66049C13.021 2.24907 13.4423 1.83766 13.8636 1.42624C13.9366 1.4032 14.0198 1.39662 14.0782 1.35493C15.3858 0.411418 16.8654 0.00219646 18.4764 2.10887e-06C22.779 1.75468e-06 27.0817 3.54196e-07 31.3844 0C32.6573 0.00109703 33.8582 0.285248 34.9771 0.882075C35.3029 1.05542 35.6175 1.24412 35.9388 1.42624L37.2026 2.66049C37.8733 3.69506 38.4777 4.75706 38.6316 6.00228C38.6384 6.05933 38.6507 6.11747 38.6597 6.17452C38.8619 7.57443 38.6282 8.27219 36.8061 8.25464C31.7226 8.20527 26.6391 8.23709 21.5556 8.2338C21.3388 8.2327 21.122 8.18552 20.9366 8.16468C20.9524 9.16743 20.9681 10.0693 20.9838 11.0391C21.0535 11.0413 21.2624 11.0501 21.4736 11.0501C26.5964 11.0501 31.7192 11.0501 36.842 11.0523C37.1386 11.0523 37.4408 11.0424 37.7329 11.0863C38.3328 11.1784 38.7159 11.6425 38.7125 12.2251C38.7091 12.7813 38.344 13.2322 37.7744 13.3408C37.543 13.3847 37.3004 13.3803 37.0633 13.3814C31.9001 13.3836 26.7369 13.3836 21.5736 13.3792C21.3377 13.3792 21.1007 13.3233 20.8917 13.2969C20.8973 14.3293 20.9029 15.2344 20.9074 16.1758C21.0849 16.1802 21.2984 16.1911 21.5107 16.1922C26.693 16.1933 31.8765 16.1933 37.0588 16.1922C37.1375 16.1922 37.2172 16.1911 37.297 16.1922C38.1867 16.2054 38.7069 16.63 38.7125 17.3486C38.7181 18.0496 38.1721 18.5148 37.3127 18.5159C33.938 18.5203 30.561 18.5181 27.1851 18.5192C25.0821 18.5192 22.979 18.517 20.9164 18.517C20.9164 19.4627 20.9153 20.3678 20.9142 21.3739C21.6983 21.3607 22.5252 21.3366 23.3531 21.3355C27.9209 21.3311 32.4876 21.3322 37.0543 21.3311C38.1238 21.3311 38.708 21.7414 38.7103 22.4896C38.7136 23.2499 38.1384 23.6624 37.0701 23.6635C31.8877 23.6646 26.7043 23.6646 21.5208 23.6646C21.3051 23.6646 21.0917 23.6734 20.9108 23.6767C20.9164 24.6147 20.922 25.522 20.9277 26.5939C21.0726 26.5643 21.2872 26.482 21.5017 26.4809C26.6447 26.4743 31.7877 26.4743 36.9308 26.4743C37.1105 26.4743 37.2891 26.4688 37.4666 26.4776C38.2013 26.5127 38.6979 26.9735 38.7091 27.6252C38.7204 28.2834 38.2351 28.7552 37.4958 28.7969C37.3172 28.8068 37.1386 28.7991 36.96 28.8002C31.817 28.8002 26.6728 28.8013 21.5309 28.798C21.3152 28.798 21.0995 28.7585 20.8782 28.7376C20.9029 29.7448 20.9254 30.6488 20.9513 31.7404C21.1984 31.7075 21.5512 31.6198 21.905 31.6187C26.929 31.6099 31.9529 31.6099 36.9768 31.6121C37.215 31.6121 37.4565 31.6044 37.6891 31.6384C38.3193 31.7295 38.7226 32.2023 38.708 32.8046C38.6945 33.3861 38.3013 33.8293 37.6936 33.916C37.4599 33.9489 37.2184 33.9412 36.9813 33.9423C31.8192 33.9434 26.656 33.9434 21.4927 33.9434C21.277 33.9434 21.0613 33.9522 20.8423 33.9577C20.8434 34.8891 20.8445 35.7789 20.8468 36.7378C21.0546 36.7432 21.2624 36.7531 21.4725 36.7542C26.6346 36.7553 31.7979 36.7553 36.9622 36.7564C37.2206 36.7564 37.4824 36.7443 37.734 36.786C38.3204 36.8804 38.7192 37.362 38.7125 37.9303C38.7069 38.4953 38.2935 38.9693 37.7093 39.057C37.4947 39.0889 37.2745 39.0801 37.0566 39.0801C31.8743 39.0812 26.6908 39.0812 21.5073 39.0746C21.2916 39.0746 21.0771 38.9923 20.9187 38.9605C20.9164 40.0335 20.9142 40.9397 20.9119 41.8766C21.0962 41.881 21.3096 41.8898 21.5253 41.8898C26.6695 41.8909 31.8125 41.8909 36.9544 41.892C37.2127 41.892 37.4734 41.8832 37.7261 41.9238C38.3013 42.0138 38.7192 42.5118 38.7136 43.0659C38.7091 43.6232 38.289 42.997 37.7115 43.0826C37.4779 43.1177 37.2375 43.1111 36.9993 43.1111C31.8563 43.1133 26.7133 43.1133 21.5703 43.1089C21.3523 43.1089 21.1355 43.0661 20.9827 43.0508C20.9883 44.0524 20.9939 40.5241 20.9996 41.4884C22.6847 41.4862 24.49 41.4808 26.2954 41.4797C29.8701 41.4775 33.4437 41.4786 37.0184 41.4786C37.2566 41.4786 37.4981 41.4709 37.7318 41.506C38.307 41.596 38.7181 42.0875 38.7159 42.6492C38.7136 43.1912 38.3317 42.5496 37.7733 42.6538C37.5419 42.6977 37.3004 42.69 37.0622 42.69C31.899 42.6922 26.7357 42.6922 21.5736 42.6889C21.3557 42.6889 21.1377 42.656 20.9951 42.6461C20.9951 43.627 20.9973 41.2108 20.9984 42.2607C21.0838 42.2454 21.3006 42.1741 21.5163 42.1741C26.5998 42.1664 31.6833 42.1675 36.7667 42.1686C36.9465 42.1686 37.124 42.1664 37.3026 42.1697C38.1823 42.1839 38.7091 42.6151 38.7159 43.326C38.7226 44.0479 38.2081 43.3822 37.324 43.3855C35.4175 43.3932 33.5111 43.3877 31.6058 43.3877C28.249 43.3877 24.8945 43.3899 21.5377 43.3833C21.322 43.3833 21.1063 43.3175 20.9018 43.2846C20.9209 44.3301 20.9366 40.7875 20.9569 41.9088C21.0703 41.877 21.2827 41.7661 21.495 41.765C26.6773 41.7552 31.8608 41.7552 37.0431 41.7563C38.4002 41.7563 38.7945 42.1611 38.6957 43.4711C38.5968 44.7766 38.1575 45.9648 37.3689 47.0268C37.3004 47.12 37.2588 47.233 37.2049 47.3362L35.941 48.5704C35.8849 48.5814 35.8163 48.5759 35.7748 48.6077C34.3851 49.6247 32.8044 50.0054 31.089 49.9999C26.9649 49.9879 22.8408 50.0087 18.7168 49.9835C17.9506 49.9791 17.1507 49.9352 16.4295 49.7136C15.5409 49.4404 14.7174 48.961 13.8659 48.5704C13.4446 48.159 13.0233 47.7476 12.602 47.3362Z" fill="#4687af"/>
<path d="M13.1255 31.973C13.5816 32.4382 13.558 33.1963 13.0716 33.6296C12.6042 34.0465 11.8515 34.0246 11.4134 33.5792C10.9787 33.137 10.9843 32.3943 11.4258 31.9587C11.8886 31.5023 12.6683 31.5089 13.1244 31.9719L13.1255 31.973Z" fill="#4687af"/>
</svg>
