<svg width="50" height="50" viewBox="0 0 50 50" fill="none" xmlns="http://www.w3.org/2000/svg">
<path fill-rule="evenodd" clip-rule="evenodd" d="M25.0002 20.4791C23.9329 20.4791 23.0627 21.3492 23.0627 22.4167V27.5624C23.0627 28.6299 23.9329 29.5 25.0002 29.5C26.0676 29.5 26.9378 28.6299 26.9378 27.5624V22.4167C26.9378 21.3492 26.0676 20.4791 25.0002 20.4791ZM20.0627 22.4167C20.0627 19.6924 22.276 17.4791 25.0002 17.4791C27.7245 17.4791 29.9377 19.6924 29.9377 22.4167V27.5624C29.9377 30.2867 27.7245 32.5 25.0002 32.5C22.276 32.5 20.0627 30.2867 20.0627 27.5624V22.4167Z" fill="#4687af"/>
<path fill-rule="evenodd" clip-rule="evenodd" d="M25 13.854C20.0785 13.854 16.0834 17.8491 16.0834 22.7707V27.229C16.0834 32.1506 20.0785 36.1457 25 36.1457C29.6724 36.1457 33.5232 32.5427 33.8795 27.9464C33.9436 27.1204 34.665 26.5028 35.491 26.5668C36.3169 26.6308 36.9346 27.3523 36.8706 28.1782C36.3935 34.3319 31.2443 39.1457 25 39.1457C18.4216 39.1457 13.0834 33.8075 13.0834 27.229V22.7707C13.0834 16.1922 18.4216 10.854 25 10.854C31.1731 10.854 36.2505 15.5489 36.8469 21.5601C36.9287 22.3844 36.3267 23.119 35.5023 23.2008C34.6779 23.2826 33.9433 22.6806 33.8615 21.8562C33.4162 17.3674 29.6187 13.854 25 13.854Z" fill="#4687af"/>
<path fill-rule="evenodd" clip-rule="evenodd" d="M29.75 4.16669C29.75 3.33826 30.4216 2.66669 31.25 2.66669H35.4167C38.8825 2.66669 41.8873 3.82852 44.0294 5.97061C46.1715 8.1127 47.3333 11.1175 47.3333 14.5834V18.75C47.3333 19.5784 46.6618 20.25 45.8333 20.25C45.0049 20.25 44.3333 19.5784 44.3333 18.75V14.5834C44.3333 11.7992 43.4118 9.59568 41.9081 8.09193C40.4043 6.58818 38.2008 5.66669 35.4167 5.66669H31.25C30.4216 5.66669 29.75 4.99511 29.75 4.16669Z" fill="#4687af"/>
<path fill-rule="evenodd" clip-rule="evenodd" d="M8.09187 8.09193C6.58812 9.59568 5.66663 11.7992 5.66663 14.5834V18.75C5.66663 19.5784 4.99505 20.25 4.16663 20.25C3.3382 20.25 2.66663 19.5784 2.66663 18.75V14.5834C2.66663 11.1175 3.82846 8.1127 5.97055 5.97061C8.11263 3.82852 11.1174 2.66669 14.5833 2.66669H18.75C19.5784 2.66669 20.25 3.33826 20.25 4.16669C20.25 4.99511 19.5784 5.66669 18.75 5.66669H14.5833C11.7992 5.66669 9.59562 6.58818 8.09187 8.09193Z" fill="#4687af"/>
<path fill-rule="evenodd" clip-rule="evenodd" d="M45.8333 29.75C46.6618 29.75 47.3333 30.4216 47.3333 31.25V35.4167C47.3333 38.8825 46.1715 41.8873 44.0294 44.0294C41.8873 46.1715 38.8825 47.3333 35.4167 47.3333H31.25C30.4216 47.3333 29.75 46.6618 29.75 45.8333C29.75 45.0049 30.4216 44.3333 31.25 44.3333H35.4167C38.2008 44.3333 40.4043 43.4118 41.9081 41.9081C43.4118 40.4043 44.3333 38.2008 44.3333 35.4167V31.25C44.3333 30.4216 45.0049 29.75 45.8333 29.75Z" fill="#4687af"/>
<path fill-rule="evenodd" clip-rule="evenodd" d="M4.16663 29.75C4.99505 29.75 5.66663 30.4216 5.66663 31.25V35.4167C5.66663 38.2008 6.58812 40.4043 8.09187 41.9081C9.59562 43.4118 11.7992 44.3333 14.5833 44.3333H18.75C19.5784 44.3333 20.25 45.0049 20.25 45.8333C20.25 46.6618 19.5784 47.3333 18.75 47.3333H14.5833C11.1174 47.3333 8.11263 46.1715 5.97055 44.0294C3.82846 41.8873 2.66663 38.8825 2.66663 35.4167V31.25C2.66663 30.4216 3.3382 29.75 4.16663 29.75Z" fill="#4687af"/>
</svg>
